<?xml version="1.0" standalone="no"?>
<!DOCTYPE svg PUBLIC "-//W3C//DTD SVG 20010904//EN"
 "http://www.w3.org/TR/2001/REC-SVG-20010904/DTD/svg10.dtd">
<svg version="1.0" xmlns="http://www.w3.org/2000/svg"
 width="680.000000pt" height="680.000000pt" viewBox="0 0 680.000000 680.000000"
 preserveAspectRatio="xMidYMid meet">
<metadata>
Created by potrace 1.11, written by Peter Selinger 2001-2013
</metadata>
<g transform="translate(0.000000,680.000000) scale(0.100000,-0.100000)"
fill="#000000" stroke="none">
<path d="M3180 6773 c-295 -27 -455 -55 -674 -114 -210 -57 -392 -126 -601
-229 -356 -176 -625 -369 -905 -650 -931 -932 -1232 -2322 -773 -3564 105
-285 321 -672 507 -906 570 -720 1373 -1168 2286 -1276 175 -21 553 -24 715
-6 821 93 1535 440 2095 1018 544 562 874 1293 941 2083 14 175 7 527 -16 691
-84 621 -313 1169 -692 1661 -109 141 -412 448 -553 560 -613 484 -1370 745
-2139 737 -86 0 -172 -3 -191 -5z m-746 -984 c242 -29 465 -106 631 -218 82
-54 242 -221 301 -312 161 -252 233 -546 234 -956 0 -303 -29 -500 -107 -718
-76 -211 -222 -412 -394 -542 -123 -93 -330 -180 -524 -221 -112 -24 -391 -34
-855 -30 -458 3 -476 4 -510 24 -70 40 -65 -70 -65 1479 0 1071 3 1406 12
1427 14 32 51 58 96 68 52 13 1077 12 1181 -1z m2663 -1718 c26 -5 82 -14 123
-21 234 -35 424 -104 502 -182 32 -32 38 -44 38 -81 0 -90 -64 -223 -155 -324
-82 -91 -93 -93 -217 -45 -57 22 -121 45 -143 51 -143 41 -439 54 -577 26 -42
-9 -112 -34 -165 -61 -270 -135 -398 -449 -380 -936 13 -365 88 -592 246 -748
134 -133 276 -183 521 -181 206 1 335 31 574 133 49 21 102 38 116 38 65 0
148 -98 210 -246 27 -65 31 -87 28 -135 -3 -48 -10 -64 -39 -97 -49 -56 -112
-97 -212 -137 -153 -62 -283 -87 -552 -108 -443 -35 -826 50 -1080 238 -294
218 -452 589 -483 1140 -15 257 8 548 59 745 30 112 57 185 107 285 62 126
113 197 207 291 242 244 577 360 1047 363 97 1 199 -3 225 -8z"/>
<path d="M1805 5228 c-3 -7 -4 -431 -3 -943 l3 -930 285 0 c309 0 340 5 455
62 251 127 384 426 385 870 0 281 -55 522 -155 679 -86 134 -231 231 -390 259
-107 19 -573 21 -580 3z"/>
</g>
</svg>
