<?xml version="1.0" standalone="no"?>
<!DOCTYPE svg PUBLIC "-//W3C//DTD SVG 20010904//EN"
 "http://www.w3.org/TR/2001/REC-SVG-20010904/DTD/svg10.dtd">
<svg version="1.0" xmlns="http://www.w3.org/2000/svg"
 width="680.000000pt" height="680.000000pt" viewBox="0 0 680.000000 680.000000"
 preserveAspectRatio="xMidYMid meet">
<metadata>
Created by potrace 1.11, written by Peter Selinger 2001-2013
</metadata>
<g transform="translate(0.000000,680.000000) scale(0.100000,-0.100000)"
fill="#000000" stroke="none">
<path d="M3145 6770 c-1647 -137 -2937 -1393 -3110 -3027 -19 -180 -19 -515 0
-701 70 -666 341 -1304 776 -1822 801 -955 2065 -1389 3291 -1130 642 136
1218 450 1688 920 538 537 863 1205 967 1986 24 180 24 618 0 799 -52 393
-150 725 -313 1063 -335 697 -868 1234 -1559 1572 -361 177 -708 279 -1100
325 -162 19 -494 27 -640 15z m-690 -981 c580 -80 928 -377 1084 -924 52 -184
76 -467 61 -725 -21 -355 -97 -610 -250 -835 -148 -217 -350 -363 -615 -443
-212 -64 -314 -72 -955 -72 -579 0 -567 -1 -614 63 -21 28 -21 31 -24 1405 -2
757 0 1396 3 1419 7 52 45 100 88 112 47 14 1124 14 1222 0z m2753 -1734 c313
-52 508 -135 548 -232 17 -40 7 -95 -36 -190 -57 -126 -169 -253 -222 -253
-10 0 -60 16 -111 36 -122 48 -201 69 -323 84 -125 16 -346 8 -429 -14 -215
-59 -369 -209 -444 -432 -69 -207 -88 -532 -46 -799 50 -312 171 -513 368
-610 113 -55 209 -75 368 -75 208 0 373 39 602 142 80 36 91 38 122 28 93 -31
237 -291 218 -393 -18 -97 -123 -181 -308 -245 -202 -71 -580 -113 -826 -92
-391 33 -637 126 -839 317 -235 222 -357 532 -396 998 -17 206 -17 305 -3 450
42 439 146 706 362 932 165 172 416 298 682 342 156 26 188 29 371 30 162 1
216 -3 342 -24z"/>
<path d="M1818 5234 c-5 -4 -8 -430 -8 -947 l0 -939 278 5 c159 3 298 10 327
17 167 40 315 163 397 330 57 114 84 215 103 375 19 154 19 290 0 440 -20 163
-47 262 -103 375 -84 171 -226 289 -397 330 -57 13 -586 26 -597 14z"/>
</g>
</svg>
