<?xml version="1.0" encoding="utf-8"?>
<svg viewBox="136.482 143.214 250 200" xmlns="http://www.w3.org/2000/svg">
  <g transform="matrix(0.493874, 0, 0, 0.489115, 136.848312, 131.774384)" style="">
    <path d="M 89.69 40.064 L 426.65 42.462 C 447.463 42.61 482.706 47.936 490.204 77.237 C 498.865 115.77 501.751 289.187 487.805 315.867 C 477.524 337.388 467.977 344.565 457.828 350.641 C 427.763 365.084 287.548 362.632 287.548 362.632 L 150.637 430.301 L 223.998 361.432 L 78.898 361.433 C 58.538 361.433 39.919 348.629 33.331 320.661 C 21.859 269.878 19.626 127.451 30.933 94.021 C 41.647 63.483 59.654 39.846 89.691 40.06 L 89.69 40.064 Z" fill-opacity=".5" fill-rule="evenodd" style="fill: rgba(0, 0, 0, 0.37);"/>
    <path d="M 76.745 28.737 L 413.705 31.135 C 434.518 31.283 469.761 36.609 477.259 65.91 C 485.92 104.443 488.806 277.86 474.86 304.54 C 464.579 326.061 455.032 333.238 444.883 339.314 C 414.818 353.757 274.603 351.305 274.603 351.305 L 140.064 422.807 L 211.053 350.105 L 65.953 350.106 C 45.593 350.106 26.974 337.302 20.386 309.334 C 8.914 258.551 6.681 116.124 17.988 82.694 C 28.702 52.156 46.709 28.519 76.746 28.733 L 76.745 28.737 Z" fill-rule="evenodd" stroke-linejoin="round" stroke-width="10" style="stroke: rgb(145, 255, 246); stroke-opacity: 0.48; fill: rgba(25, 92, 88, 0.37);"/>
  </g>
</svg>