<?xml version="1.0" encoding="utf-8"?>
<svg viewBox="0 440.88 100 32" xmlns="http://www.w3.org/2000/svg">
  <path d="M 22.524 440.88 L 25.959 440.88 L 29.393 440.88 L 32.828 440.88 L 36.263 440.88 L 39.698 440.88 L 43.131 440.88 L 56.869 440.88 L 60.304 440.88 L 63.738 440.88 L 67.173 440.88 L 70.607 440.88 L 74.041 440.88 L 77.475 440.88 C 78.254 440.88 79.022 440.909 79.779 440.963 C 80.535 441.018 81.281 441.098 82.015 441.206 C 82.749 441.312 83.47 441.444 84.174 441.6 C 84.879 441.756 85.569 441.936 86.243 442.139 C 86.916 442.341 87.574 442.566 88.211 442.811 C 88.851 443.059 89.469 443.326 90.071 443.613 C 90.669 443.901 91.247 444.209 91.803 444.533 C 92.36 444.861 92.894 445.204 93.403 445.567 C 93.914 445.929 94.398 446.308 94.858 446.703 C 95.316 447.098 95.751 447.508 96.154 447.935 C 96.558 448.359 96.936 448.801 97.282 449.255 C 97.629 449.707 97.947 450.175 98.23 450.652 C 98.515 451.131 98.768 451.622 98.99 452.122 C 99.207 452.623 99.393 453.136 99.545 453.657 C 99.694 454.176 99.81 454.707 99.885 455.244 C 99.961 455.782 100 456.328 100 456.88 C 100 457.433 99.961 457.978 99.885 458.517 C 99.81 459.054 99.694 459.584 99.545 460.104 C 99.393 460.625 99.207 461.137 98.99 461.638 C 98.768 462.138 98.515 462.629 98.23 463.108 C 97.947 463.586 97.629 464.054 97.282 464.506 C 96.936 464.961 96.558 465.401 96.154 465.826 C 95.751 466.252 95.316 466.662 94.858 467.057 C 94.398 467.452 93.914 467.831 93.403 468.193 C 92.894 468.556 92.36 468.899 91.803 469.227 C 91.247 469.551 90.669 469.86 90.071 470.147 C 89.469 470.435 88.851 470.702 88.213 470.949 C 87.575 471.194 86.918 471.42 86.243 471.621 C 85.569 471.824 84.879 472.005 84.174 472.16 C 83.47 472.316 82.749 472.447 82.015 472.554 C 81.281 472.662 80.536 472.742 79.779 472.797 C 79.022 472.852 78.254 472.88 77.475 472.88 L 74.041 472.88 L 70.607 472.88 L 67.173 472.88 L 63.738 472.88 L 60.304 472.88 L 56.869 472.88 L 43.132 472.88 L 39.698 472.88 L 36.263 472.88 L 32.828 472.88 L 29.393 472.88 L 25.959 472.88 L 22.524 472.88 C 21.747 472.88 20.98 472.852 20.221 472.797 C 19.465 472.742 18.719 472.662 17.987 472.554 C 17.254 472.447 16.531 472.316 15.827 472.16 C 15.121 472.005 14.432 471.824 13.757 471.621 C 13.084 471.42 12.425 471.194 11.79 470.949 C 11.151 470.702 10.529 470.435 9.931 470.147 C 9.333 469.86 8.754 469.551 8.196 469.227 C 7.639 468.899 7.105 468.556 6.597 468.193 C 6.089 467.831 5.603 467.452 5.143 467.057 C 4.684 466.662 4.252 466.252 3.847 465.826 C 3.443 465.401 3.065 464.961 2.718 464.506 C 2.373 464.054 2.054 463.586 1.77 463.108 C 1.485 462.629 1.231 462.138 1.012 461.638 C 0.792 461.137 0.607 460.625 0.457 460.104 C 0.308 459.584 0.194 459.054 0.116 458.517 C 0.04 457.978 0 457.433 0 456.88 C 0 456.328 0.04 455.782 0.116 455.244 C 0.194 454.707 0.308 454.176 0.457 453.657 C 0.607 453.136 0.792 452.623 1.012 452.122 C 1.231 451.622 1.485 451.131 1.77 450.652 C 2.054 450.174 2.373 449.707 2.718 449.255 C 3.065 448.801 3.443 448.359 3.847 447.935 C 4.252 447.508 4.684 447.098 5.143 446.703 C 5.603 446.308 6.089 445.929 6.597 445.567 C 7.105 445.204 7.639 444.861 8.196 444.533 C 8.754 444.209 9.333 443.901 9.931 443.613 C 10.529 443.326 11.151 443.059 11.79 442.811 C 12.425 442.566 13.084 442.341 13.757 442.139 C 14.432 441.936 15.121 441.756 15.827 441.6 C 16.531 441.444 17.254 441.311 17.987 441.205 C 18.719 441.098 19.465 441.018 20.221 440.963 C 20.98 440.909 21.747 440.88 22.524 440.88 Z" style="fill: none; stroke-width: 5px; stroke-linecap: round; stroke-linejoin: round; stroke: rgba(255, 255, 255, 0.3);"/>
</svg>