<?xml version="1.0" encoding="utf-8"?>
<svg viewBox="147.123 149.041 177.233 159.726" width="26px" height="26px" xmlns="http://www.w3.org/2000/svg">
  <g transform="matrix(1.444777, 0, 0, 1.444777, 142.551376, 136.438263)">
    <g fill="#231F20">
      <polygon points="28 92 64 118.5 64 9.5 28 36" style="fill: rgb(255, 255, 255);"/>
      <rect x="4" y="36" width="17" height="56" style="fill: rgb(255, 255, 255);"/>
      <path d="m98 63c-14.888 0-27 12.112-27 27s12.112 27 27 27 27-12.112 27-27-12.112-27-27-27zm0 6c4.709 0 9.046 1.577 12.553 4.205l-29.348 29.348c-2.628-3.507-4.205-7.844-4.205-12.553 0-11.579 9.421-21 21-21zm0 42c-4.709 0-9.046-1.577-12.553-4.205l29.348-29.348c2.628 3.507 4.205 7.844 4.205 12.553 0 11.579-9.421 21-21 21z" style="fill: rgb(255, 255, 255);"/>
    </g>
  </g>
</svg>